<?xml version="1.0" encoding="UTF-8"?>
<svg id="Layer_1" xmlns="http://www.w3.org/2000/svg" version="1.1" viewBox="0 0 600 600">
  <!-- Generator: Adobe Illustrator 29.5.1, SVG Export Plug-In . SVG Version: 2.1.0 Build 141)  -->
  <defs>
    <style>
      .st0 {
        fill: #090909;
      }

      .st0, .st1, .st2, .st3, .st4 {
        stroke-linejoin: round;
        stroke-width: 16px;
      }

      .st0, .st1, .st3 {
        stroke: #090909;
      }

      .st1, .st2, .st5 {
        fill: #fff;
      }

      .st6 {
        fill: #ffabd0;
      }

      .st2 {
        stroke: #fff;
      }

      .st7 {
        fill: #031c86;
      }

      .st3 {
        fill: none;
        stroke-linecap: square;
      }

      .st4 {
        stroke: #000;
      }

      .st8 {
        display: none;
      }
    </style>
  </defs>
  <g id="Layer_11" class="st8">
    <rect class="st6" width="600" height="600" rx="50" ry="50"/>
    <polygon class="st4" points="428.4 491.4 168.8 491.4 193.6 207.1 253.3 149.7 458.2 149.7 428.4 491.4"/>
    <polygon class="st1" points="396.6 460.1 140.9 460.1 165.2 182.8 245.8 108.6 427.4 108.6 396.6 460.1"/>
    <polygon class="st0" points="367.2 261.1 200.9 261.1 210.4 153.1 376.6 153.1 367.2 261.1"/>
    <line class="st3" x1="192.4" y1="358.4" x2="358.7" y2="358.4"/>
    <line class="st3" x1="188.7" y1="400.5" x2="274" y2="400.5"/>
    <line class="st3" x1="196.1" y1="316.3" x2="362.4" y2="316.3"/>
    <polyline class="st2" points="261.5 125.9 255 200.1 180.8 200.1"/>
    <polyline class="st0" points="245.8 108.6 239.4 182.8 165.2 182.8"/>
  </g>
  <circle class="st7" cx="299" cy="300" r="300"/>
  <path class="st5" d="M488.67,274.75c-7.29-5.82-16.83-8.01-25.93-5.94-24.9,5.62-49.64-10-55.27-34.9-.72-3.18-1.1-6.42-1.13-9.67-.08-16.86-13.72-30.5-30.58-30.58-25.52-.28-45.99-21.2-45.71-46.72.04-3.26.42-6.5,1.13-9.68,3.72-16.62-6.73-33.12-23.36-36.84-2.17-.49-4.39-.74-6.62-.75-.42,0-.83,0-1.25,0-110.64.02-200.32,89.73-200.3,200.37.02,110.64,89.73,200.32,200.37,200.3,110.64-.02,200.32-89.73,200.3-200.37,0-.4,0-.8,0-1.2h0c-.03-9.36-4.33-18.2-11.66-24.01ZM419.76,419.97c-65.18,65.07-171.9,65.78-237.9,1.59-67.14-65.23-68.68-172.54-3.45-239.68,31.92-32.85,75.78-51.39,121.59-51.38.37,0,.74,0,1.11,0-9.33,41.59,16.82,82.87,58.41,92.2,5.25,1.18,10.61,1.8,15.99,1.87.47,42.55,35.34,76.67,77.89,76.2,5.42-.06,10.81-.69,16.1-1.88,0,.02,0,.04,0,.07.42,45.4-17.52,89.04-49.75,121.01ZM370.29,368.4c9.03,9.03,9.03,23.66,0,32.69-9.03,9.03-23.66,9.03-32.69,0-9.03-9.03-9.03-23.66,0-32.69h0c9.03-9.03,23.66-9.03,32.69,0ZM247,352.99c9.03,9.03,9.03,23.66,0,32.69s-23.66,9.03-32.69,0c-9.03-9.03-9.03-23.66,0-32.69,0,0,0,0,0,0,9.03-9.03,23.66-9.03,32.69,0ZM198.9,277.81c-9.03-9.03-9.03-23.66,0-32.69s23.66-9.03,32.69,0c9.03,9.03,9.03,23.66,0,32.69h0c-9.03,9.03-23.66,9.03-32.69,0ZM331.76,308.63c-9.03,9.03-23.66,9.03-32.69,0-9.03-9.03-9.03-23.66,0-32.69,9.03-9.03,23.66-9.03,32.69,0,9.03,9.03,9.03,23.66,0,32.69Z"/>
</svg>